<svg xmlns="http://www.w3.org/2000/svg" viewBox="0 0 337.8 89.02"><title>city-of-philadelphia</title><path d="M90.45,68.11V79.86H84.78V47.94q5.67-.24,6.63-0.24Q99,47.7,102.48,50t3.5,7.25q0,11-13,11Q92.06,68.26,90.45,68.11Zm0-15.27V63.07q1.44,0.15,2.27.15,3.88,0,5.67-1.3a4.86,4.86,0,0,0,1.79-4.22q0-5-8-5A13.27,13.27,0,0,0,90.45,52.84Z" style="fill:#444"/><path d="M125.78,79.86V65.47A4.61,4.61,0,0,0,124.42,62a4.87,4.87,0,0,0-3.53-1.31,5.76,5.76,0,0,0-2.73.73,5,5,0,0,0-2,1.67V79.86h-5.54V47.8l5.54-1.31V58A8.35,8.35,0,0,1,122,56.07a9.18,9.18,0,0,1,6.8,2.43q2.42,2.43,2.42,7V79.86h-5.47Z" style="fill:#444"/><path d="M138.6,79.86V61h-3V56.51h8.51V79.86H138.6Zm2.81-32.41a3.17,3.17,0,1,1-2.24.93A3,3,0,0,1,141.41,47.46Z" style="fill:#444"/><path d="M151.4,47.8l5.45-1.31V72.75q0,4.32,2.57,5.15a4.48,4.48,0,0,1-4.32,2.4q-3.71,0-3.71-5.15V47.8Z" style="fill:#444"/><path d="M176.63,77.53a5.28,5.28,0,0,1-2.58,2,9.85,9.85,0,0,1-3.85.77,8.71,8.71,0,0,1-5.93-1.89,6.73,6.73,0,0,1-2.16-5.35,7.5,7.5,0,0,1,3-6.35q3-2.29,8.65-2.29a9.57,9.57,0,0,1,2.27.33q0-4.12-5.21-4.12a11.56,11.56,0,0,0-5.15,1l-1.18-4.23a15.32,15.32,0,0,1,6.7-1.35q5.34,0,7.83,2.43t2.49,9.21v5q0,4.67,1.88,5.87a2.94,2.94,0,0,1-1.5,1.45,6.07,6.07,0,0,1-1.9.27,3,3,0,0,1-2.12-.87A4.45,4.45,0,0,1,176.63,77.53Zm-0.52-8.66a11.62,11.62,0,0,0-2.09-.28q-6.46,0-6.46,4.23,0,3.14,3.64,3.14,4.91,0,4.91-4.91V68.87Z" style="fill:#444"/><path d="M202.45,79.86V78.44a5.51,5.51,0,0,1-2.29,1.3,10.16,10.16,0,0,1-3.34.56,9.85,9.85,0,0,1-7.69-3.1q-2.8-3.1-2.8-8.64a12.76,12.76,0,0,1,3.22-9,10.52,10.52,0,0,1,8.06-3.48,10.67,10.67,0,0,1,4.84,1.09V47.8l5.45-1.31V79.86h-5.45Zm0-17.77a5.76,5.76,0,0,0-3.64-1.4,6.38,6.38,0,0,0-5,2A8.37,8.37,0,0,0,192,68.41q0,7.28,7,7.28a5.3,5.3,0,0,0,1.93-.47,3.52,3.52,0,0,0,1.49-.95V62.09Z" style="fill:#444"/><path d="M234.21,69.85H217.52a5.92,5.92,0,0,0,1.92,4.34,7,7,0,0,0,4.75,1.55,7.68,7.68,0,0,0,5.67-1.94L232,78q-2.88,2.33-8.59,2.33a11.37,11.37,0,0,1-8.45-3.13q-3.11-3.13-3.11-8.73a12.11,12.11,0,0,1,3.41-8.94,12,12,0,0,1,16.35-.39,10.38,10.38,0,0,1,3.08,7.72A15.28,15.28,0,0,1,234.21,69.85Zm-16.49-4.1h11.47q-0.57-5.12-5.67-5.12Q218.85,60.63,217.72,65.75Z" style="fill:#444"/><path d="M240,47.8l5.45-1.31V72.75q0,4.32,2.57,5.15a4.48,4.48,0,0,1-4.32,2.4q-3.71,0-3.71-5.15V47.8Z" style="fill:#444"/><path d="M257.21,79.27V89h-5.45V56.51h5.45v1.57a6.93,6.93,0,0,1,5-2q11.17,0,11.17,12.3,0,5.74-3.09,8.83a11.36,11.36,0,0,1-8.43,3.1A10.6,10.6,0,0,1,257.21,79.27Zm0-17.05V74.5a5.35,5.35,0,0,0,3.47,1.2q3.77,0,5.42-1.8t1.65-5.68q0-4.14-1.64-5.83t-5.41-1.69A4.8,4.8,0,0,0,257.21,62.22Z" style="fill:#444"/><path d="M293.33,79.86V65.47A4.61,4.61,0,0,0,292,62a4.87,4.87,0,0,0-3.53-1.31,5.76,5.76,0,0,0-2.73.73,5,5,0,0,0-2,1.67V79.86h-5.54V47.8l5.54-1.31V58a8.35,8.35,0,0,1,5.82-1.92,9.18,9.18,0,0,1,6.8,2.43q2.42,2.43,2.42,7V79.86h-5.47Z" style="fill:#444"/><path d="M306.15,79.86V61h-3V56.51h8.5V79.86h-5.52ZM309,47.46a3.16,3.16,0,1,1-2.24.93A3,3,0,0,1,309,47.46Z" style="fill:#444"/><path d="M331,77.53a5.28,5.28,0,0,1-2.58,2,9.85,9.85,0,0,1-3.85.77,8.71,8.71,0,0,1-5.93-1.89,6.73,6.73,0,0,1-2.16-5.35,7.5,7.5,0,0,1,3-6.35q3-2.29,8.65-2.29a9.57,9.57,0,0,1,2.27.33q0-4.12-5.21-4.12a11.56,11.56,0,0,0-5.15,1l-1.18-4.23a15.32,15.32,0,0,1,6.7-1.35q5.34,0,7.83,2.43t2.49,9.21v5q0,4.67,1.88,5.87a2.94,2.94,0,0,1-1.5,1.45,6.07,6.07,0,0,1-1.9.27,3,3,0,0,1-2.12-.87A4.45,4.45,0,0,1,331,77.53Zm-0.52-8.66a11.62,11.62,0,0,0-2.09-.28q-6.46,0-6.46,4.23,0,3.14,3.64,3.14,4.91,0,4.91-4.91V68.87Z" style="fill:#444"/><path d="M98.3,15.76l-1.37,2.76a4.93,4.93,0,0,0-3.6-1.12,4.64,4.64,0,0,0-3.85,2,8,8,0,0,0-1.5,5,7.55,7.55,0,0,0,1.39,4.79,4.49,4.49,0,0,0,3.72,1.77A5,5,0,0,0,97.24,29l1.55,2.7a7.83,7.83,0,0,1-6,2.17,7.57,7.57,0,0,1-6.13-2.6,10.65,10.65,0,0,1-2.18-7.08,10.31,10.31,0,0,1,2.42-7,7.82,7.82,0,0,1,6.2-2.81A9,9,0,0,1,98.3,15.76Z" style="fill:#444"/><path d="M102.16,33.58V22.45H100.4V19.82h5V33.58h-3.25Zm1.66-19.09a1.86,1.86,0,1,1-1.32.55A1.8,1.8,0,0,1,103.82,14.49Z" style="fill:#444"/><path d="M109.64,22.4H108V19.82h1.59V17l3.21-1.18v4h3.78V22.4h-3.78v6a3.55,3.55,0,0,0,.46,2.09,1.91,1.91,0,0,0,1.62.61,4,4,0,0,0,2.16-.63v3a10.23,10.23,0,0,1-3.19.39,4.15,4.15,0,0,1-3.16-1.16,4.62,4.62,0,0,1-1.1-3.31v-7Z" style="fill:#444"/><path d="M125.68,35.79a4.42,4.42,0,0,1-2.2,2.28,8.22,8.22,0,0,1-3.94.91V36.14q3.71,0,3.71-1.86a11.47,11.47,0,0,0-1-3.78l-4.3-10.68h3.33L125,29.33l3.38-9.51h3.33Z" style="fill:#444"/><path d="M137,26.67a7.28,7.28,0,0,1,1.82-5.13,7,7,0,0,1,9.67-.08,7.43,7.43,0,0,1,1.73,5.2,7.47,7.47,0,0,1-1.77,5.23,7,7,0,0,1-9.71,0A7.55,7.55,0,0,1,137,26.67Zm3.34,0q0,4.55,3.28,4.55A2.82,2.82,0,0,0,146,30a5.55,5.55,0,0,0,.88-3.37q0-4.48-3.26-4.48a2.83,2.83,0,0,0-2.39,1.18A5.4,5.4,0,0,0,140.31,26.67Z" style="fill:#444"/><path d="M160.44,17.12a5.65,5.65,0,0,0-1.62-.35,1.93,1.93,0,0,0-1.55.78,3,3,0,0,0-.63,1.93q0,0.17,0,.33h2.85v2.65h-2.8V33.58h-3.21V22.47h-2V19.82h2a6.29,6.29,0,0,1,1.5-4.09,4.62,4.62,0,0,1,3.6-1.55,9.87,9.87,0,0,1,2.79.5Z" style="fill:#444"/><path d="M29.13,69.9c0.2,2.1.6,5.34,0.89,6.57,13,3.44,21.89,1.75,24,.32,1.54-1.06,2.58-1.6.48-5.95C49.75,72.78,40,72.65,29.13,69.9" style="fill:#f2c612"/><path d="M23.87,75.82a2.78,2.78,0,0,0-2.65,4.77l-0.65,1.28a2.92,2.92,0,0,0,1.08.6,2.32,2.32,0,0,0,1.15.13L23,81.23a2.77,2.77,0,0,0,.85-5.41" style="fill:#f2c612"/><path d="M71,16.87c0.66-2.37-.87-2.79-1.4-2.94L53.76,9.52C52.54,9.18,53,6.4,51.83,6.09L39.38,2.61C38.25,2.3,37.17,4.88,36,4.55L20.14,0.13C19.62,0,18.09-.45,17.42,1.92L13.83,14.78a0.27,0.27,0,0,1-.36.2l-1.13-.32a0.87,0.87,0,0,0-1,.58,13.25,13.25,0,0,0-1.14,2.9,19.31,19.31,0,0,0-.65,3.5,0.78,0.78,0,0,0,.58,1L20.23,25.5a1.49,1.49,0,0,0,1.93-.89c1.08-2.3,3.82-6.67,4.74-7.19,1.23-.69,8.38.49,8.38,0.49a7.89,7.89,0,0,0-.48,1.52c-0.28,1.13.36,3.89-.29,4.26-3.55,2-9.87-1-12,4.9C17.22,43.66,13.32,50.09,7.4,54c2.77,3.25,9.33,6.69,18.79,9.57a4.5,4.5,0,0,1-.1-0.88,29.5,29.5,0,0,0-.23-3.45c-0.23-2.08-.35-3.1-0.4-4.14a11.31,11.31,0,0,1,.6-3.76l0.2-.69c0.7-2.41,3-9.11,3.87-11,0.16-.34.35-0.28,0.4-0.26s0.25,0.06.21,0.43c-0.24,2.07-1.95,8.95-2.65,11.36l-0.2.68a9.19,9.19,0,0,0-.39,3.41c0,0.89.26,2,.49,4.09a31.79,31.79,0,0,1,.24,3.55,4.52,4.52,0,0,0,.25,1.34l0.17,0c10.81,3,19.14,3.68,23.54,2.21-3-6.43-3-14,.24-29.59,1.28-6.16-5.7-6.85-7.69-10.39-0.36-.65,1.64-2.67,2-3.78a6.35,6.35,0,0,0,.35-1.56s7,2.78,7.74,4c0.52,0.92.6,6.08,0.33,8.6a1.49,1.49,0,0,0,1.19,1.77l10.13,2.83a0.78,0.78,0,0,0,1-.57,19.17,19.17,0,0,0,1.26-3.33,13.27,13.27,0,0,0,.53-3.07,0.87,0.87,0,0,0-.57-1l-1.13-.32a0.27,0.27,0,0,1-.2-0.36" style="fill:#f2c612"/><path d="M3.24,56.57c-4.1,2.78-3.56,4.25-2.42,5.73,2.79,3.6,10.28,9,24,12.82L27.93,76c-0.22-1.08-.71-4.56-0.94-6.64C15.54,66.08,6.45,60.87,3.24,56.57" style="fill:#f2c612"/></svg>